<?xml version="1.0" encoding="utf-8"?>
<!-- Generator: Adobe Illustrator 26.0.0, SVG Export Plug-In . SVG Version: 6.00 Build 0)  -->
<svg version="1.1" id="Layer_1" xmlns="http://www.w3.org/2000/svg" xmlns:xlink="http://www.w3.org/1999/xlink" x="0px" y="0px"
	 viewBox="0 0 595.28 841.89" style="enable-background:new 0 0 595.28 841.89;" xml:space="preserve">
<style type="text/css">
	.st0{fill:#1877F2;}
	.st1{fill:#FFFFFF;}
</style>
<circle class="st0" cx="297.64" cy="420.94" r="260.43"/>
<path class="st1" d="M249.39,676.91c0.85-59.23,1.7-118.46,2.55-177.69h-63.49v-73.85h64.68c0,0-4.86-35.63,0.51-73.89
	c6.67-47.53,42.55-105.19,153.19-76.94v62.89h-41.79c0,0-35.49,4.85-31.85,45.89c1.04,11.78,0,24.38-0.06,42.04h71.32l-11.06,73.34
	H333.3c0.24,60.05,0.48,120.09,0.73,180.14c-10.7,1.49-22.91,2.52-36.39,2.52C279.18,681.37,262.9,679.42,249.39,676.91z"/>
</svg>
